<svg width="26" height="26" viewBox="0 0 26 26" fill="none" xmlns="http://www.w3.org/2000/svg">
<path d="M22.3287 5.225C21.7814 4.67751 21.1317 4.2432 20.4165 3.94688C19.7014 3.65056 18.9349 3.49805 18.1608 3.49805C17.3867 3.49805 16.6202 3.65056 15.9051 3.94688C15.1899 4.2432 14.5402 4.67751 13.993 5.225L12.8572 6.36072L11.7215 5.225C10.6161 4.11962 9.11691 3.49862 7.55366 3.49862C5.99041 3.49862 4.49119 4.11962 3.38581 5.225C2.28042 6.33039 1.65942 7.82961 1.65942 9.39286C1.65942 10.9561 2.28042 12.4553 3.38581 13.5607L12.8572 23.0321L22.3287 13.5607C22.8762 13.0135 23.3105 12.3637 23.6068 11.6486C23.9031 10.9335 24.0556 10.167 24.0556 9.39286C24.0556 8.61877 23.9031 7.85226 23.6068 7.13712C23.3105 6.42199 22.8762 5.77224 22.3287 5.225Z" stroke="#1E1E1E" stroke-width="1.5" stroke-linecap="round" stroke-linejoin="round"/>
</svg>
