<svg width="16" height="22" viewBox="0 0 16 22" fill="none" xmlns="http://www.w3.org/2000/svg">
<path d="M7.99984 21.8333C7.74706 21.8333 7.53039 21.7611 7.34984 21.6167C7.16928 21.4722 7.03387 21.2826 6.94359 21.0479C6.60053 20.0368 6.1672 19.0889 5.64359 18.2042C5.13803 17.3194 4.42484 16.2812 3.504 15.0896C2.58317 13.8979 1.83387 12.7604 1.25609 11.6771C0.696365 10.5937 0.416504 9.28472 0.416504 7.75C0.416504 5.6375 1.14775 3.85 2.61025 2.3875C4.09081 0.906941 5.88734 0.166664 7.99984 0.166664C10.1123 0.166664 11.8998 0.906941 13.3623 2.3875C14.8429 3.85 15.5832 5.6375 15.5832 7.75C15.5832 9.39305 15.2672 10.7653 14.6353 11.8667C14.0214 12.95 13.3082 14.0243 12.4957 15.0896C11.5207 16.3896 10.7804 17.4729 10.2748 18.3396C9.78734 19.1882 9.38109 20.091 9.05609 21.0479C8.96581 21.3007 8.82137 21.4993 8.62276 21.6437C8.4422 21.7701 8.23456 21.8333 7.99984 21.8333ZM7.99984 17.9604C8.30678 17.3465 8.64984 16.7417 9.02901 16.1458C9.42623 15.55 10.004 14.7556 10.7623 13.7625C11.5387 12.7514 12.1707 11.8215 12.6582 10.9729C13.1637 10.1062 13.4165 9.03194 13.4165 7.75C13.4165 6.25138 12.8839 4.97847 11.8186 3.93125C10.7714 2.86597 9.49845 2.33333 7.99984 2.33333C6.50123 2.33333 5.21928 2.86597 4.154 3.93125C3.10678 4.97847 2.58317 6.25138 2.58317 7.75C2.58317 9.03194 2.82692 10.1062 3.31442 10.9729C3.81998 11.8215 4.46095 12.7514 5.23734 13.7625C5.99567 14.7556 6.56442 15.55 6.94359 16.1458C7.34081 16.7417 7.69289 17.3465 7.99984 17.9604ZM7.99984 10.4583C8.75817 10.4583 9.39914 10.1965 9.92275 9.67291C10.4464 9.1493 10.7082 8.50833 10.7082 7.75C10.7082 6.99166 10.4464 6.35069 9.92275 5.82708C9.39914 5.30347 8.75817 5.04166 7.99984 5.04166C7.2415 5.04166 6.60053 5.30347 6.07692 5.82708C5.55331 6.35069 5.2915 6.99166 5.2915 7.75C5.2915 8.50833 5.55331 9.1493 6.07692 9.67291C6.60053 10.1965 7.2415 10.4583 7.99984 10.4583Z" fill="#D2AC71"/>
</svg>
