<svg width="46" height="46" viewBox="0 0 46 46" fill="none" xmlns="http://www.w3.org/2000/svg">
<rect width="46" height="46" rx="20" fill="white"/>
<rect width="46" height="46" rx="20" fill="#F6EEE5"/>
<path d="M23 33C22.7667 33 22.5667 32.9333 22.4 32.8C22.2333 32.6667 22.1083 32.4917 22.025 32.275C21.7083 31.3417 21.3083 30.4667 20.825 29.65C20.3583 28.8333 19.7 27.875 18.85 26.775C18 25.675 17.3083 24.625 16.775 23.625C16.2583 22.625 16 21.4167 16 20C16 18.05 16.675 16.4 18.025 15.05C19.3917 13.6833 21.05 13 23 13C24.95 13 26.6 13.6833 27.95 15.05C29.3167 16.4 30 18.05 30 20C30 21.5167 29.7083 22.7833 29.125 23.8C28.5583 24.8 27.9 25.7917 27.15 26.775C26.25 27.975 25.5667 28.975 25.1 29.775C24.65 30.5583 24.275 31.3917 23.975 32.275C23.8917 32.5083 23.7583 32.6917 23.575 32.825C23.4083 32.9417 23.2167 33 23 33ZM23 29.425C23.2833 28.8583 23.6 28.3 23.95 27.75C24.3167 27.2 24.85 26.4667 25.55 25.55C26.2667 24.6167 26.85 23.7583 27.3 22.975C27.7667 22.175 28 21.1833 28 20C28 18.6167 27.5083 17.4417 26.525 16.475C25.5583 15.4917 24.3833 15 23 15C21.6167 15 20.4333 15.4917 19.45 16.475C18.4833 17.4417 18 18.6167 18 20C18 21.1833 18.225 22.175 18.675 22.975C19.1417 23.7583 19.7333 24.6167 20.45 25.55C21.15 26.4667 21.675 27.2 22.025 27.75C22.3917 28.3 22.7167 28.8583 23 29.425ZM23 22.5C23.7 22.5 24.2917 22.2583 24.775 21.775C25.2583 21.2917 25.5 20.7 25.5 20C25.5 19.3 25.2583 18.7083 24.775 18.225C24.2917 17.7417 23.7 17.5 23 17.5C22.3 17.5 21.7083 17.7417 21.225 18.225C20.7417 18.7083 20.5 19.3 20.5 20C20.5 20.7 20.7417 21.2917 21.225 21.775C21.7083 22.2583 22.3 22.5 23 22.5Z" fill="#121212"/>
</svg>
