<svg width="16" height="16" viewBox="0 0 16 16" fill="none" xmlns="http://www.w3.org/2000/svg">
<path d="M15.4532 14.6504L12.5475 11.7055C13.6745 10.2681 14.2198 8.44398 14.0711 6.6083C13.9225 4.77262 13.0913 3.0649 11.7485 1.83628C10.4056 0.607661 8.65314 -0.0484736 6.85142 0.00279298C5.04971 0.0540595 3.33569 0.808831 2.0618 2.11191C0.787912 3.41499 0.0509858 5.16733 0.00254795 7.00861C-0.0458899 8.8499 0.597842 10.6402 1.80138 12.0113C3.00492 13.3825 4.67678 14.2302 6.4732 14.3804C8.26961 14.5305 10.054 13.9715 11.4596 12.8184L14.3412 15.7633C14.414 15.8383 14.5006 15.8978 14.5961 15.9385C14.6915 15.9791 14.7938 16 14.8972 16C15.0006 16 15.1029 15.9791 15.1984 15.9385C15.2938 15.8978 15.3804 15.8383 15.4532 15.7633C15.5945 15.614 15.6735 15.4145 15.6735 15.2069C15.6735 14.9992 15.5945 14.7997 15.4532 14.6504ZM7.06605 12.8184C6.34622 12.8184 5.63343 12.6735 4.96839 12.392C4.30335 12.1105 3.69908 11.6979 3.19009 11.1777C2.68109 10.6575 2.27733 10.04 2.00186 9.3604C1.72639 8.68077 1.58461 7.95235 1.58461 7.21672C1.58461 6.4811 1.72639 5.75268 2.00186 5.07305C2.27733 4.39343 2.68109 3.7759 3.19009 3.25574C3.69908 2.73557 4.30335 2.32296 4.96839 2.04145C5.63343 1.75994 6.34622 1.61504 7.06605 1.61504C8.51982 1.61504 9.91405 2.20522 10.942 3.25574C11.97 4.30626 12.5475 5.73107 12.5475 7.21672C12.5475 8.70238 11.97 10.1272 10.942 11.1777C9.91405 12.2282 8.51982 12.8184 7.06605 12.8184Z" fill="#D2AC71"/>
</svg>
